<?xml version="1.0" encoding="iso-8859-1"?>
<!-- Generator: Adobe Illustrator 19.0.0, SVG Export Plug-In . SVG Version: 6.00 Build 0)  -->
<svg version="1.1" id="Layer_1" xmlns="http://www.w3.org/2000/svg" xmlns:xlink="http://www.w3.org/1999/xlink" x="0px" y="0px"
	 viewBox="0 0 206.819 206.819" style="enable-background:new 0 0 206.819 206.819;" xml:space="preserve">
<g>
	<g>
		<g>
			<path d="M188.97,26.745H17.847C8.006,26.745,0,34.757,0,44.609v49.852c0,9.851,8.006,17.864,17.847,17.864h74.865v49.921h7.132
				v-49.921h7.132v49.921h7.132v-49.921h74.865c9.841,0,17.846-8.013,17.846-17.864V44.609
				C206.817,34.757,198.811,26.745,188.97,26.745z M199.685,94.46c0,5.916-4.807,10.732-10.715,10.732H17.847
				c-5.908,0-10.715-4.816-10.715-10.732V44.609c0-5.916,4.807-10.732,10.715-10.732H188.97c5.908,0,10.715,4.816,10.715,10.732
				V94.46z"/>
			<rect x="35.658" y="87.363" width="131.986" height="7.132"/>
			<rect x="21.395" y="76.666" width="164.027" height="7.132"/>
			<path d="M153.33,158.679c-1.969,0-3.566,1.595-3.566,3.566c0,5.899-4.799,10.697-10.697,10.697
				c-5.899,0-10.697-4.799-10.697-10.697v-39.224h-7.132v39.224c0,9.83,7.999,17.829,17.829,17.829
				c9.83,0,17.829-7.999,17.829-17.829C156.896,160.274,155.299,158.679,153.33,158.679z"/>
			<path d="M78.448,162.245c0,5.899-4.799,10.697-10.697,10.697c-5.898,0-10.697-4.799-10.697-10.697
				c0-1.971-1.597-3.566-3.566-3.566c-1.969,0-3.566,1.595-3.566,3.566c0,9.83,7.999,17.829,17.829,17.829
				c9.83,0,17.829-7.999,17.829-17.829v-39.224h-7.132V162.245z"/>
		</g>
	</g>
</g>
<g>
</g>
<g>
</g>
<g>
</g>
<g>
</g>
<g>
</g>
<g>
</g>
<g>
</g>
<g>
</g>
<g>
</g>
<g>
</g>
<g>
</g>
<g>
</g>
<g>
</g>
<g>
</g>
<g>
</g>
</svg>
